%TF.GenerationSoftware,KiCad,Pcbnew,7.0.7*%
%TF.CreationDate,2024-10-30T15:42:33+00:00*%
%TF.ProjectId,Ponder-Pico2,506f6e64-6572-42d5-9069-636f322e6b69,0.1*%
%TF.SameCoordinates,Original*%
%TF.FileFunction,Soldermask,Top*%
%TF.FilePolarity,Negative*%
%FSLAX46Y46*%
G04 Gerber Fmt 4.6, Leading zero omitted, Abs format (unit mm)*
G04 Created by KiCad (PCBNEW 7.0.7) date 2024-10-30 15:42:33*
%MOMM*%
%LPD*%
G01*
G04 APERTURE LIST*
G04 Aperture macros list*
%AMRoundRect*
0 Rectangle with rounded corners*
0 $1 Rounding radius*
0 $2 $3 $4 $5 $6 $7 $8 $9 X,Y pos of 4 corners*
0 Add a 4 corners polygon primitive as box body*
4,1,4,$2,$3,$4,$5,$6,$7,$8,$9,$2,$3,0*
0 Add four circle primitives for the rounded corners*
1,1,$1+$1,$2,$3*
1,1,$1+$1,$4,$5*
1,1,$1+$1,$6,$7*
1,1,$1+$1,$8,$9*
0 Add four rect primitives between the rounded corners*
20,1,$1+$1,$2,$3,$4,$5,0*
20,1,$1+$1,$4,$5,$6,$7,0*
20,1,$1+$1,$6,$7,$8,$9,0*
20,1,$1+$1,$8,$9,$2,$3,0*%
G04 Aperture macros list end*
%ADD10C,0.650000*%
%ADD11R,0.600000X1.150000*%
%ADD12R,0.300000X1.150000*%
%ADD13O,1.000000X2.100000*%
%ADD14O,1.000000X1.800000*%
%ADD15C,2.700000*%
%ADD16RoundRect,0.135000X-0.185000X0.135000X-0.185000X-0.135000X0.185000X-0.135000X0.185000X0.135000X0*%
%ADD17RoundRect,0.135000X0.185000X-0.135000X0.185000X0.135000X-0.185000X0.135000X-0.185000X-0.135000X0*%
%ADD18RoundRect,0.112500X-0.112500X0.187500X-0.112500X-0.187500X0.112500X-0.187500X0.112500X0.187500X0*%
%ADD19RoundRect,0.250000X-0.250000X-0.475000X0.250000X-0.475000X0.250000X0.475000X-0.250000X0.475000X0*%
%ADD20O,1.800000X1.800000*%
%ADD21O,1.500000X1.500000*%
%ADD22R,3.500000X1.700000*%
%ADD23R,1.700000X3.500000*%
%ADD24RoundRect,0.400000X-0.400000X-0.400000X0.400000X-0.400000X0.400000X0.400000X-0.400000X0.400000X0*%
%ADD25RoundRect,0.135000X-0.135000X-0.185000X0.135000X-0.185000X0.135000X0.185000X-0.135000X0.185000X0*%
%ADD26R,1.050000X0.650000*%
%ADD27R,1.000000X1.000000*%
%ADD28O,1.000000X1.000000*%
%ADD29R,1.700000X1.700000*%
%ADD30O,1.700000X1.700000*%
%TA.AperFunction,Profile*%
%ADD31C,0.100000*%
%TD*%
G04 APERTURE END LIST*
D10*
%TO.C,J1*%
X143590000Y-79105000D03*
X137810000Y-79105000D03*
D11*
X143900000Y-80180000D03*
X143100000Y-80180000D03*
D12*
X141950000Y-80180000D03*
X140950000Y-80180000D03*
X140450000Y-80180000D03*
X139450000Y-80180000D03*
D11*
X138300000Y-80180000D03*
X137500000Y-80180000D03*
X137500000Y-80180000D03*
X138300000Y-80180000D03*
D12*
X138950000Y-80180000D03*
X139950000Y-80180000D03*
X141450000Y-80180000D03*
X142450000Y-80180000D03*
D11*
X143100000Y-80180000D03*
X143900000Y-80180000D03*
D13*
X145020000Y-79605000D03*
D14*
X145020000Y-75425000D03*
D13*
X136380000Y-79605000D03*
D14*
X136380000Y-75425000D03*
%TD*%
D15*
%TO.C,H4*%
X123600000Y-120000000D03*
%TD*%
D16*
%TO.C,R4*%
X146700000Y-74590000D03*
X146700000Y-75610000D03*
%TD*%
%TO.C,R47*%
X147215000Y-141490000D03*
X147215000Y-142510000D03*
%TD*%
D17*
%TO.C,R2*%
X138600000Y-83110000D03*
X138600000Y-82090000D03*
%TD*%
D18*
%TO.C,D10*%
X127400000Y-77750000D03*
X127400000Y-79850000D03*
%TD*%
D16*
%TO.C,R45*%
X137865000Y-141490000D03*
X137865000Y-142510000D03*
%TD*%
D17*
%TO.C,R1*%
X142200000Y-83110000D03*
X142200000Y-82090000D03*
%TD*%
D19*
%TO.C,C13*%
X148350000Y-79000000D03*
X150250000Y-79000000D03*
%TD*%
D15*
%TO.C,H2*%
X157575000Y-75985000D03*
%TD*%
D20*
%TO.C,U1*%
X137775000Y-86080000D03*
D21*
X138075000Y-89110000D03*
X142925000Y-89110000D03*
D20*
X143225000Y-86080000D03*
D22*
X130710000Y-85950000D03*
X130710000Y-88490000D03*
X130710000Y-91030000D03*
X130710000Y-93570000D03*
X130710000Y-96110000D03*
X130710000Y-98650000D03*
X130710000Y-101190000D03*
X130710000Y-103730000D03*
X130710000Y-106270000D03*
X130710000Y-108810000D03*
X130710000Y-111350000D03*
X130710000Y-113890000D03*
X130710000Y-116430000D03*
X130710000Y-118970000D03*
X130710000Y-121510000D03*
X130710000Y-124050000D03*
X130710000Y-126590000D03*
X130710000Y-129130000D03*
X130710000Y-131670000D03*
X130710000Y-134210000D03*
X150290000Y-134210000D03*
X150290000Y-131670000D03*
X150290000Y-129130000D03*
X150290000Y-126590000D03*
X150290000Y-124050000D03*
X150290000Y-121510000D03*
X150290000Y-118970000D03*
X150290000Y-116430000D03*
X150290000Y-113890000D03*
X150290000Y-111350000D03*
X150290000Y-108810000D03*
X150290000Y-106270000D03*
X150290000Y-103730000D03*
X150290000Y-101190000D03*
X150290000Y-98650000D03*
X150290000Y-96110000D03*
X150290000Y-93570000D03*
X150290000Y-91030000D03*
X150290000Y-88490000D03*
X150290000Y-85950000D03*
D23*
X137960000Y-134880000D03*
X140500000Y-134880000D03*
X143040000Y-134880000D03*
D24*
X140500000Y-89080000D03*
X141500000Y-85780000D03*
X139500000Y-85780000D03*
X138000000Y-92580000D03*
X138000000Y-95080000D03*
X138000000Y-97580000D03*
X141500000Y-105080000D03*
%TD*%
D15*
%TO.C,H1*%
X123600000Y-75985000D03*
%TD*%
D17*
%TO.C,R44*%
X125800000Y-79910000D03*
X125800000Y-78890000D03*
%TD*%
D15*
%TO.C,H3*%
X157575000Y-120000000D03*
%TD*%
D25*
%TO.C,R43*%
X122490000Y-79600000D03*
X123510000Y-79600000D03*
%TD*%
D16*
%TO.C,R48*%
X144315000Y-141490000D03*
X144315000Y-142510000D03*
%TD*%
D15*
%TO.C,H6*%
X157575000Y-147000000D03*
%TD*%
D26*
%TO.C,SW2*%
X129150000Y-74925000D03*
X133300000Y-74925000D03*
X129150000Y-77075000D03*
X133275000Y-77075000D03*
%TD*%
D16*
%TO.C,R46*%
X141065000Y-141490000D03*
X141065000Y-142510000D03*
%TD*%
D26*
%TO.C,SW1*%
X148550000Y-74925000D03*
X152700000Y-74925000D03*
X148550000Y-77075000D03*
X152675000Y-77075000D03*
%TD*%
D16*
%TO.C,R8*%
X127400000Y-74890000D03*
X127400000Y-75910000D03*
%TD*%
D15*
%TO.C,H5*%
X123600000Y-147000000D03*
%TD*%
D16*
%TO.C,R7*%
X130000000Y-78890000D03*
X130000000Y-79910000D03*
%TD*%
D27*
%TO.C,J12*%
X145865000Y-140180000D03*
D28*
X145865000Y-141450000D03*
X145865000Y-142720000D03*
%TD*%
D29*
%TO.C,J6*%
X158625000Y-102580000D03*
D30*
X158625000Y-100040000D03*
X158625000Y-97500000D03*
X158625000Y-94960000D03*
%TD*%
D27*
%TO.C,J13*%
X142765000Y-140150000D03*
D28*
X142765000Y-141420000D03*
X142765000Y-142690000D03*
%TD*%
D29*
%TO.C,J2*%
X122375000Y-82175000D03*
D30*
X122375000Y-84715000D03*
X122375000Y-87255000D03*
X122375000Y-89795000D03*
%TD*%
D29*
%TO.C,J7*%
X158600000Y-89800000D03*
D30*
X158600000Y-87260000D03*
X158600000Y-84720000D03*
X158600000Y-82180000D03*
%TD*%
D29*
%TO.C,J3*%
X122375000Y-94950000D03*
D30*
X122375000Y-97490000D03*
X122375000Y-100030000D03*
X122375000Y-102570000D03*
%TD*%
D29*
%TO.C,J5*%
X158600000Y-115420000D03*
D30*
X158600000Y-112880000D03*
X158600000Y-110340000D03*
X158600000Y-107800000D03*
%TD*%
D29*
%TO.C,J8*%
X147425000Y-147400000D03*
D30*
X144885000Y-147400000D03*
X142345000Y-147400000D03*
X139805000Y-147400000D03*
X137265000Y-147400000D03*
X134725000Y-147400000D03*
%TD*%
D27*
%TO.C,J14*%
X139665000Y-140160000D03*
D28*
X139665000Y-141430000D03*
X139665000Y-142700000D03*
%TD*%
D27*
%TO.C,J9*%
X146900000Y-76825000D03*
D28*
X146900000Y-78095000D03*
X146900000Y-79365000D03*
%TD*%
D27*
%TO.C,J15*%
X136565000Y-140160000D03*
D28*
X136565000Y-141430000D03*
X136565000Y-142700000D03*
%TD*%
D29*
%TO.C,J4*%
X122350000Y-107805000D03*
D30*
X122350000Y-110345000D03*
X122350000Y-112885000D03*
X122350000Y-115425000D03*
%TD*%
D31*
X120600000Y-146987500D02*
X120600000Y-75985000D01*
X160575000Y-75985000D02*
G75*
G03*
X157575000Y-72985000I-3000000J0D01*
G01*
X123600000Y-72985000D02*
G75*
G03*
X120600000Y-75985000I0J-3000000D01*
G01*
X120600000Y-146987500D02*
G75*
G03*
X123612500Y-150000000I3012500J0D01*
G01*
X123600000Y-72985000D02*
X157575000Y-72985000D01*
X157587500Y-150000000D02*
G75*
G03*
X160575000Y-147012500I0J2987500D01*
G01*
X157587500Y-150000000D02*
X123612500Y-150000000D01*
X160575000Y-75985000D02*
X160575000Y-147012500D01*
M02*
