%TF.GenerationSoftware,KiCad,Pcbnew,7.0.7*%
%TF.CreationDate,2024-09-16T17:18:32+01:00*%
%TF.ProjectId,Ponder,506f6e64-6572-42e6-9b69-6361645f7063,1.0RC*%
%TF.SameCoordinates,Original*%
%TF.FileFunction,Soldermask,Top*%
%TF.FilePolarity,Negative*%
%FSLAX46Y46*%
G04 Gerber Fmt 4.6, Leading zero omitted, Abs format (unit mm)*
G04 Created by KiCad (PCBNEW 7.0.7) date 2024-09-16 17:18:32*
%MOMM*%
%LPD*%
G01*
G04 APERTURE LIST*
G04 Aperture macros list*
%AMRoundRect*
0 Rectangle with rounded corners*
0 $1 Rounding radius*
0 $2 $3 $4 $5 $6 $7 $8 $9 X,Y pos of 4 corners*
0 Add a 4 corners polygon primitive as box body*
4,1,4,$2,$3,$4,$5,$6,$7,$8,$9,$2,$3,0*
0 Add four circle primitives for the rounded corners*
1,1,$1+$1,$2,$3*
1,1,$1+$1,$4,$5*
1,1,$1+$1,$6,$7*
1,1,$1+$1,$8,$9*
0 Add four rect primitives between the rounded corners*
20,1,$1+$1,$2,$3,$4,$5,0*
20,1,$1+$1,$4,$5,$6,$7,0*
20,1,$1+$1,$6,$7,$8,$9,0*
20,1,$1+$1,$8,$9,$2,$3,0*%
G04 Aperture macros list end*
%ADD10RoundRect,0.250000X-0.250000X-0.475000X0.250000X-0.475000X0.250000X0.475000X-0.250000X0.475000X0*%
%ADD11C,1.000000*%
%ADD12RoundRect,0.140000X-0.170000X0.140000X-0.170000X-0.140000X0.170000X-0.140000X0.170000X0.140000X0*%
%ADD13RoundRect,0.140000X0.170000X-0.140000X0.170000X0.140000X-0.170000X0.140000X-0.170000X-0.140000X0*%
%ADD14C,0.650000*%
%ADD15R,0.600000X1.150000*%
%ADD16R,0.300000X1.150000*%
%ADD17O,1.000000X2.100000*%
%ADD18O,1.000000X1.800000*%
%ADD19C,2.700000*%
%ADD20RoundRect,0.135000X-0.185000X0.135000X-0.185000X-0.135000X0.185000X-0.135000X0.185000X0.135000X0*%
%ADD21RoundRect,0.140000X-0.021213X0.219203X-0.219203X0.021213X0.021213X-0.219203X0.219203X-0.021213X0*%
%ADD22R,0.470000X0.530000*%
%ADD23R,1.500000X2.000000*%
%ADD24R,3.800000X2.000000*%
%ADD25RoundRect,0.135000X0.185000X-0.135000X0.185000X0.135000X-0.185000X0.135000X-0.185000X-0.135000X0*%
%ADD26RoundRect,0.112500X-0.112500X0.187500X-0.112500X-0.187500X0.112500X-0.187500X0.112500X0.187500X0*%
%ADD27RoundRect,0.140000X0.140000X0.170000X-0.140000X0.170000X-0.140000X-0.170000X0.140000X-0.170000X0*%
%ADD28RoundRect,0.055000X0.335000X-0.055000X0.335000X0.055000X-0.335000X0.055000X-0.335000X-0.055000X0*%
%ADD29RoundRect,0.055000X-0.055000X-0.335000X0.055000X-0.335000X0.055000X0.335000X-0.055000X0.335000X0*%
%ADD30C,0.600000*%
%ADD31R,1.133333X1.133333*%
%ADD32RoundRect,0.140000X-0.140000X-0.170000X0.140000X-0.170000X0.140000X0.170000X-0.140000X0.170000X0*%
%ADD33R,1.700000X1.700000*%
%ADD34O,1.700000X1.700000*%
%ADD35R,1.000000X1.000000*%
%ADD36O,1.000000X1.000000*%
%ADD37R,0.850000X0.350000*%
%ADD38R,2.400000X3.100000*%
%ADD39RoundRect,0.135000X-0.135000X-0.185000X0.135000X-0.185000X0.135000X0.185000X-0.135000X0.185000X0*%
%ADD40R,1.050000X0.650000*%
%ADD41R,1.400000X1.200000*%
%ADD42R,0.700000X1.700000*%
%ADD43R,2.510000X1.000000*%
%TA.AperFunction,Profile*%
%ADD44C,0.100000*%
%TD*%
G04 APERTURE END LIST*
D10*
%TO.C,C13*%
X148350000Y-79000000D03*
X150250000Y-79000000D03*
%TD*%
D11*
%TO.C,TP7*%
X129800000Y-90600000D03*
%TD*%
D12*
%TO.C,C5*%
X138900000Y-102620000D03*
X138900000Y-103580000D03*
%TD*%
D11*
%TO.C,TP9*%
X129800000Y-93500000D03*
%TD*%
D13*
%TO.C,C4*%
X139300000Y-85580000D03*
X139300000Y-84620000D03*
%TD*%
D14*
%TO.C,J1*%
X143590000Y-79105000D03*
X137810000Y-79105000D03*
D15*
X143900000Y-80180000D03*
X143100000Y-80180000D03*
D16*
X141950000Y-80180000D03*
X140950000Y-80180000D03*
X140450000Y-80180000D03*
X139450000Y-80180000D03*
D15*
X138300000Y-80180000D03*
X137500000Y-80180000D03*
X137500000Y-80180000D03*
X138300000Y-80180000D03*
D16*
X138950000Y-80180000D03*
X139950000Y-80180000D03*
X141450000Y-80180000D03*
X142450000Y-80180000D03*
D15*
X143100000Y-80180000D03*
X143900000Y-80180000D03*
D17*
X145020000Y-79605000D03*
D18*
X145020000Y-75425000D03*
D17*
X136380000Y-79605000D03*
D18*
X136380000Y-75425000D03*
%TD*%
D19*
%TO.C,H4*%
X123600000Y-120012500D03*
%TD*%
D12*
%TO.C,C15*%
X145500000Y-87220000D03*
X145500000Y-88180000D03*
%TD*%
D20*
%TO.C,R4*%
X146700000Y-74790000D03*
X146700000Y-75810000D03*
%TD*%
D21*
%TO.C,C12*%
X136539411Y-101260589D03*
X135860589Y-101939411D03*
%TD*%
D22*
%TO.C,C16*%
X142785000Y-88150000D03*
X143815000Y-88150000D03*
%TD*%
D20*
%TO.C,R6*%
X141300000Y-84890000D03*
X141300000Y-85910000D03*
%TD*%
D23*
%TO.C,U1*%
X153000000Y-82050000D03*
X150700000Y-82050000D03*
D24*
X150700000Y-88350000D03*
D23*
X148400000Y-82050000D03*
%TD*%
D25*
%TO.C,R2*%
X138700000Y-83110000D03*
X138700000Y-82090000D03*
%TD*%
D11*
%TO.C,TP12*%
X146900000Y-96100000D03*
%TD*%
%TO.C,TP4*%
X147000000Y-104750000D03*
%TD*%
D26*
%TO.C,D10*%
X127400000Y-77750000D03*
X127400000Y-79850000D03*
%TD*%
D25*
%TO.C,R1*%
X142700000Y-83110000D03*
X142700000Y-82090000D03*
%TD*%
D11*
%TO.C,TP1*%
X144000000Y-103000000D03*
%TD*%
D27*
%TO.C,C6*%
X134980000Y-86800000D03*
X134020000Y-86800000D03*
%TD*%
D28*
%TO.C,U3*%
X135403500Y-90400000D03*
X135403500Y-90800000D03*
X135403500Y-91200000D03*
X135403500Y-91600000D03*
X135403500Y-92000000D03*
X135403500Y-92400000D03*
X135403500Y-92800000D03*
X135403500Y-93200000D03*
X135403500Y-93600000D03*
X135403500Y-94000000D03*
X135403500Y-94400000D03*
X135403500Y-94800000D03*
X135403500Y-95200000D03*
X135403500Y-95600000D03*
X135403500Y-96000000D03*
X135403500Y-96400000D03*
X135403500Y-96800000D03*
X135403500Y-97200000D03*
X135403500Y-97600000D03*
X135403500Y-98000000D03*
D29*
X136500000Y-99096500D03*
X136900000Y-99096500D03*
X137300000Y-99096500D03*
X137700000Y-99096500D03*
X138100000Y-99096500D03*
X138500000Y-99096500D03*
X138900000Y-99096500D03*
X139300000Y-99096500D03*
X139700000Y-99096500D03*
X140100000Y-99096500D03*
X140500000Y-99096500D03*
X140900000Y-99096500D03*
X141300000Y-99096500D03*
X141700000Y-99096500D03*
X142100000Y-99096500D03*
X142500000Y-99096500D03*
X142900000Y-99096500D03*
X143300000Y-99096500D03*
X143700000Y-99096500D03*
X144100000Y-99096500D03*
D28*
X145196500Y-98000000D03*
X145196500Y-97600000D03*
X145196500Y-97200000D03*
X145196500Y-96800000D03*
X145196500Y-96400000D03*
X145196500Y-96000000D03*
X145196500Y-95600000D03*
X145196500Y-95200000D03*
X145196500Y-94800000D03*
X145196500Y-94400000D03*
X145196500Y-94000000D03*
X145196500Y-93600000D03*
X145196500Y-93200000D03*
X145196500Y-92800000D03*
X145196500Y-92400000D03*
X145196500Y-92000000D03*
X145196500Y-91600000D03*
X145196500Y-91200000D03*
X145196500Y-90800000D03*
X145196500Y-90400000D03*
D29*
X144100000Y-89303500D03*
X143700000Y-89303500D03*
X143300000Y-89303500D03*
X142900000Y-89303500D03*
X142500000Y-89303500D03*
X142100000Y-89303500D03*
X141700000Y-89303500D03*
X141300000Y-89303500D03*
X140900000Y-89303500D03*
X140500000Y-89303500D03*
X140100000Y-89303500D03*
X139700000Y-89303500D03*
X139300000Y-89303500D03*
X138900000Y-89303500D03*
X138500000Y-89303500D03*
X138100000Y-89303500D03*
X137700000Y-89303500D03*
X137300000Y-89303500D03*
X136900000Y-89303500D03*
X136500000Y-89303500D03*
D30*
X139166667Y-93066667D03*
D31*
X139166667Y-93066667D03*
D30*
X139166667Y-94200000D03*
D31*
X139166667Y-94200000D03*
D30*
X139166667Y-95333333D03*
D31*
X139166667Y-95333333D03*
D30*
X140300000Y-93066667D03*
D31*
X140300000Y-93066667D03*
D30*
X140300000Y-94200000D03*
D31*
X140300000Y-94200000D03*
D30*
X140300000Y-95333333D03*
D31*
X140300000Y-95333333D03*
D30*
X141433333Y-93066667D03*
D31*
X141433333Y-93066667D03*
D30*
X141433333Y-94200000D03*
D31*
X141433333Y-94200000D03*
D30*
X141433333Y-95333333D03*
D31*
X141433333Y-95333333D03*
%TD*%
D19*
%TO.C,H2*%
X157575000Y-75985000D03*
%TD*%
D22*
%TO.C,C17*%
X142785000Y-87200000D03*
X143815000Y-87200000D03*
%TD*%
D27*
%TO.C,C7*%
X132780000Y-91700000D03*
X131820000Y-91700000D03*
%TD*%
D10*
%TO.C,C14*%
X152150000Y-90900000D03*
X154050000Y-90900000D03*
%TD*%
D32*
%TO.C,C3*%
X147820000Y-93700000D03*
X148780000Y-93700000D03*
%TD*%
D33*
%TO.C,J8*%
X135040000Y-120800000D03*
D34*
X137580000Y-120800000D03*
X140120000Y-120800000D03*
X142660000Y-120800000D03*
X145200000Y-120800000D03*
X147740000Y-120800000D03*
%TD*%
D35*
%TO.C,J12*%
X136600000Y-113580000D03*
D36*
X136600000Y-114850000D03*
X136600000Y-116120000D03*
%TD*%
D19*
%TO.C,H1*%
X123600000Y-75985000D03*
%TD*%
D20*
%TO.C,R3*%
X145500000Y-85340000D03*
X145500000Y-86360000D03*
%TD*%
%TO.C,R9*%
X140500000Y-101995000D03*
X140500000Y-103015000D03*
%TD*%
D25*
%TO.C,R44*%
X125800000Y-79910000D03*
X125800000Y-78890000D03*
%TD*%
D37*
%TO.C,U2*%
X131900000Y-82400000D03*
X131900000Y-83200000D03*
X131900000Y-84000000D03*
X131900000Y-84800000D03*
X135800000Y-84800000D03*
X135800000Y-84000000D03*
X135800000Y-83200000D03*
X135800000Y-82400000D03*
D38*
X133850000Y-83600000D03*
%TD*%
D19*
%TO.C,H3*%
X157575000Y-120012500D03*
%TD*%
D32*
%TO.C,C8*%
X147825000Y-94700000D03*
X148785000Y-94700000D03*
%TD*%
D11*
%TO.C,TP10*%
X148300000Y-92200000D03*
%TD*%
D39*
%TO.C,R43*%
X122490000Y-79600000D03*
X123510000Y-79600000D03*
%TD*%
D11*
%TO.C,TP3*%
X145000000Y-104750000D03*
%TD*%
D35*
%TO.C,J14*%
X142800000Y-113560000D03*
D36*
X142800000Y-114830000D03*
X142800000Y-116100000D03*
%TD*%
D12*
%TO.C,C2*%
X141700000Y-102020000D03*
X141700000Y-102980000D03*
%TD*%
D27*
%TO.C,C1*%
X132780000Y-94000000D03*
X131820000Y-94000000D03*
%TD*%
%TO.C,C19*%
X139405000Y-104620000D03*
X138445000Y-104620000D03*
%TD*%
D40*
%TO.C,SW2*%
X129150000Y-74925000D03*
X133300000Y-74925000D03*
X129150000Y-77075000D03*
X133275000Y-77075000D03*
%TD*%
D32*
%TO.C,C10*%
X147020000Y-98600000D03*
X147980000Y-98600000D03*
%TD*%
D41*
%TO.C,X1*%
X139200000Y-109050000D03*
X141400000Y-109050000D03*
X141400000Y-107350000D03*
X139200000Y-107350000D03*
%TD*%
D42*
%TO.C,L1*%
X142600000Y-85550000D03*
X144000000Y-85550000D03*
%TD*%
D40*
%TO.C,SW1*%
X148125000Y-74925000D03*
X152275000Y-74925000D03*
X148125000Y-77075000D03*
X152250000Y-77075000D03*
%TD*%
D11*
%TO.C,TP2*%
X146000000Y-103000000D03*
%TD*%
D32*
%TO.C,C11*%
X147020000Y-90400000D03*
X147980000Y-90400000D03*
%TD*%
D20*
%TO.C,R8*%
X127400000Y-74890000D03*
X127400000Y-75910000D03*
%TD*%
%TO.C,R5*%
X140300000Y-84890000D03*
X140300000Y-85910000D03*
%TD*%
D11*
%TO.C,TP8*%
X131600000Y-89600000D03*
%TD*%
D35*
%TO.C,J13*%
X139700000Y-113550000D03*
D36*
X139700000Y-114820000D03*
X139700000Y-116090000D03*
%TD*%
D13*
%TO.C,C18*%
X134600000Y-80680000D03*
X134600000Y-79720000D03*
%TD*%
D27*
%TO.C,C9*%
X132780000Y-96400000D03*
X131820000Y-96400000D03*
%TD*%
D11*
%TO.C,TP11*%
X150300000Y-91700000D03*
%TD*%
%TO.C,TP5*%
X148000000Y-103000000D03*
%TD*%
D32*
%TO.C,C20*%
X141415000Y-104620000D03*
X142375000Y-104620000D03*
%TD*%
D11*
%TO.C,TP6*%
X129800000Y-88600000D03*
%TD*%
D20*
%TO.C,R7*%
X130000000Y-78890000D03*
X130000000Y-79910000D03*
%TD*%
D35*
%TO.C,J15*%
X145900000Y-113560000D03*
D36*
X145900000Y-114830000D03*
X145900000Y-116100000D03*
%TD*%
D43*
%TO.C,J11*%
X129900000Y-106290000D03*
X133210000Y-108830000D03*
X129900000Y-111370000D03*
X133210000Y-113910000D03*
%TD*%
D33*
%TO.C,J6*%
X158625000Y-102580000D03*
D34*
X158625000Y-100040000D03*
X158625000Y-97500000D03*
X158625000Y-94960000D03*
%TD*%
D33*
%TO.C,J2*%
X122375000Y-82175000D03*
D34*
X122375000Y-84715000D03*
X122375000Y-87255000D03*
X122375000Y-89795000D03*
%TD*%
D33*
%TO.C,J7*%
X158600000Y-89800000D03*
D34*
X158600000Y-87260000D03*
X158600000Y-84720000D03*
X158600000Y-82180000D03*
%TD*%
D33*
%TO.C,J3*%
X122375000Y-94950000D03*
D34*
X122375000Y-97490000D03*
X122375000Y-100030000D03*
X122375000Y-102570000D03*
%TD*%
D33*
%TO.C,J5*%
X158600000Y-115420000D03*
D34*
X158600000Y-112880000D03*
X158600000Y-110340000D03*
X158600000Y-107800000D03*
%TD*%
D35*
%TO.C,J9*%
X146900000Y-76825000D03*
D36*
X146900000Y-78095000D03*
X146900000Y-79365000D03*
%TD*%
D33*
%TO.C,J4*%
X122350000Y-107805000D03*
D34*
X122350000Y-110345000D03*
X122350000Y-112885000D03*
X122350000Y-115425000D03*
%TD*%
D44*
X120600000Y-120000000D02*
X120600000Y-75985000D01*
X160575000Y-75985000D02*
G75*
G03*
X157575000Y-72985000I-3000000J0D01*
G01*
X123600000Y-72985000D02*
G75*
G03*
X120600000Y-75985000I0J-3000000D01*
G01*
X120600000Y-120000000D02*
G75*
G03*
X123612500Y-123012500I3012500J0D01*
G01*
X123600000Y-72985000D02*
X157575000Y-72985000D01*
X157587500Y-123012500D02*
G75*
G03*
X160575000Y-120025000I0J2987500D01*
G01*
X157587500Y-123012500D02*
X123612500Y-123012500D01*
X160575000Y-75985000D02*
X160575000Y-120025000D01*
M02*
