%TF.GenerationSoftware,KiCad,Pcbnew,7.0.7*%
%TF.CreationDate,2024-10-30T16:50:20+00:00*%
%TF.ProjectId,Ponder-Pico2,506f6e64-6572-42d5-9069-636f322e6b69,1.0*%
%TF.SameCoordinates,Original*%
%TF.FileFunction,Paste,Bot*%
%TF.FilePolarity,Positive*%
%FSLAX46Y46*%
G04 Gerber Fmt 4.6, Leading zero omitted, Abs format (unit mm)*
G04 Created by KiCad (PCBNEW 7.0.7) date 2024-10-30 16:50:20*
%MOMM*%
%LPD*%
G01*
G04 APERTURE LIST*
G04 Aperture macros list*
%AMRoundRect*
0 Rectangle with rounded corners*
0 $1 Rounding radius*
0 $2 $3 $4 $5 $6 $7 $8 $9 X,Y pos of 4 corners*
0 Add a 4 corners polygon primitive as box body*
4,1,4,$2,$3,$4,$5,$6,$7,$8,$9,$2,$3,0*
0 Add four circle primitives for the rounded corners*
1,1,$1+$1,$2,$3*
1,1,$1+$1,$4,$5*
1,1,$1+$1,$6,$7*
1,1,$1+$1,$8,$9*
0 Add four rect primitives between the rounded corners*
20,1,$1+$1,$2,$3,$4,$5,0*
20,1,$1+$1,$4,$5,$6,$7,0*
20,1,$1+$1,$6,$7,$8,$9,0*
20,1,$1+$1,$8,$9,$2,$3,0*%
G04 Aperture macros list end*
%ADD10RoundRect,0.135000X-0.185000X0.135000X-0.185000X-0.135000X0.185000X-0.135000X0.185000X0.135000X0*%
%ADD11RoundRect,0.237500X-0.287500X-0.237500X0.287500X-0.237500X0.287500X0.237500X-0.287500X0.237500X0*%
%ADD12RoundRect,0.140000X0.140000X0.170000X-0.140000X0.170000X-0.140000X-0.170000X0.140000X-0.170000X0*%
%ADD13RoundRect,0.135000X0.185000X-0.135000X0.185000X0.135000X-0.185000X0.135000X-0.185000X-0.135000X0*%
%ADD14RoundRect,0.150000X0.825000X0.150000X-0.825000X0.150000X-0.825000X-0.150000X0.825000X-0.150000X0*%
%ADD15RoundRect,0.135000X-0.135000X-0.185000X0.135000X-0.185000X0.135000X0.185000X-0.135000X0.185000X0*%
%ADD16RoundRect,0.237500X0.287500X0.237500X-0.287500X0.237500X-0.287500X-0.237500X0.287500X-0.237500X0*%
%ADD17RoundRect,0.140000X-0.140000X-0.170000X0.140000X-0.170000X0.140000X0.170000X-0.140000X0.170000X0*%
%ADD18RoundRect,0.150000X-0.825000X-0.150000X0.825000X-0.150000X0.825000X0.150000X-0.825000X0.150000X0*%
%ADD19RoundRect,0.135000X0.135000X0.185000X-0.135000X0.185000X-0.135000X-0.185000X0.135000X-0.185000X0*%
%ADD20RoundRect,0.237500X-0.237500X0.287500X-0.237500X-0.287500X0.237500X-0.287500X0.237500X0.287500X0*%
%ADD21R,0.780000X2.835000*%
%ADD22R,0.740000X2.835000*%
%TA.AperFunction,Profile*%
%ADD23C,0.100000*%
%TD*%
G04 APERTURE END LIST*
D10*
%TO.C,R14*%
X124800000Y-110090000D03*
X124800000Y-111110000D03*
%TD*%
D11*
%TO.C,D1*%
X122025000Y-79500000D03*
X123775000Y-79500000D03*
%TD*%
D12*
%TO.C,C29*%
X149880000Y-101995000D03*
X148920000Y-101995000D03*
%TD*%
D13*
%TO.C,R38*%
X147200000Y-85600000D03*
X147200000Y-84580000D03*
%TD*%
D14*
%TO.C,U4*%
X131475000Y-84095000D03*
X131475000Y-85365000D03*
X131475000Y-86635000D03*
X131475000Y-87905000D03*
X126525000Y-87905000D03*
X126525000Y-86635000D03*
X126525000Y-85365000D03*
X126525000Y-84095000D03*
%TD*%
D12*
%TO.C,C30*%
X149880000Y-89295000D03*
X148920000Y-89295000D03*
%TD*%
%TO.C,C22*%
X126680000Y-82600000D03*
X125720000Y-82600000D03*
%TD*%
D13*
%TO.C,R42*%
X142250000Y-83110000D03*
X142250000Y-82090000D03*
%TD*%
D15*
%TO.C,R34*%
X153890000Y-92400000D03*
X154910000Y-92400000D03*
%TD*%
D13*
%TO.C,R11*%
X124750000Y-87650000D03*
X124750000Y-86630000D03*
%TD*%
D10*
%TO.C,R33*%
X147500000Y-112290000D03*
X147500000Y-113310000D03*
%TD*%
%TO.C,R26*%
X134000000Y-99090000D03*
X134000000Y-100110000D03*
%TD*%
D12*
%TO.C,C27*%
X126680000Y-108400000D03*
X125720000Y-108400000D03*
%TD*%
D10*
%TO.C,R21*%
X156300000Y-84385000D03*
X156300000Y-85405000D03*
%TD*%
D16*
%TO.C,D4*%
X159275000Y-105200000D03*
X157525000Y-105200000D03*
%TD*%
D14*
%TO.C,U5*%
X131475000Y-96690000D03*
X131475000Y-97960000D03*
X131475000Y-99230000D03*
X131475000Y-100500000D03*
X126525000Y-100500000D03*
X126525000Y-99230000D03*
X126525000Y-97960000D03*
X126525000Y-96690000D03*
%TD*%
D10*
%TO.C,R37*%
X147200000Y-99090000D03*
X147200000Y-100110000D03*
%TD*%
D17*
%TO.C,C28*%
X154520000Y-115100000D03*
X155480000Y-115100000D03*
%TD*%
D10*
%TO.C,R23*%
X134000000Y-86490000D03*
X134000000Y-87510000D03*
%TD*%
%TO.C,R19*%
X156200000Y-96990000D03*
X156200000Y-98010000D03*
%TD*%
D13*
%TO.C,R27*%
X134000000Y-98210000D03*
X134000000Y-97190000D03*
%TD*%
%TO.C,R18*%
X156200000Y-100210000D03*
X156200000Y-99190000D03*
%TD*%
D10*
%TO.C,R10*%
X124750000Y-84390000D03*
X124750000Y-85410000D03*
%TD*%
D15*
%TO.C,R35*%
X154790000Y-79600000D03*
X155810000Y-79600000D03*
%TD*%
D13*
%TO.C,R30*%
X134000000Y-110910000D03*
X134000000Y-109890000D03*
%TD*%
%TO.C,R40*%
X139250000Y-83110000D03*
X139250000Y-82090000D03*
%TD*%
D18*
%TO.C,U9*%
X149525000Y-87905000D03*
X149525000Y-86635000D03*
X149525000Y-85365000D03*
X149525000Y-84095000D03*
X154475000Y-84095000D03*
X154475000Y-85365000D03*
X154475000Y-86635000D03*
X154475000Y-87905000D03*
%TD*%
D13*
%TO.C,R32*%
X147500000Y-111310000D03*
X147500000Y-110290000D03*
%TD*%
%TO.C,R15*%
X124800000Y-113415000D03*
X124800000Y-112395000D03*
%TD*%
D10*
%TO.C,R39*%
X147200000Y-86580000D03*
X147200000Y-87600000D03*
%TD*%
D11*
%TO.C,D3*%
X121925000Y-105200000D03*
X123675000Y-105200000D03*
%TD*%
D12*
%TO.C,C24*%
X126680000Y-95200000D03*
X125720000Y-95200000D03*
%TD*%
D17*
%TO.C,C31*%
X154520000Y-101900000D03*
X155480000Y-101900000D03*
%TD*%
D19*
%TO.C,R25*%
X127510000Y-92400000D03*
X126490000Y-92400000D03*
%TD*%
D20*
%TO.C,D9*%
X142250000Y-74375000D03*
X142250000Y-76125000D03*
%TD*%
D18*
%TO.C,U7*%
X149525000Y-113610000D03*
X149525000Y-112340000D03*
X149525000Y-111070000D03*
X149525000Y-109800000D03*
X154475000Y-109800000D03*
X154475000Y-111070000D03*
X154475000Y-112340000D03*
X154475000Y-113610000D03*
%TD*%
D13*
%TO.C,R36*%
X147200000Y-98110000D03*
X147200000Y-97090000D03*
%TD*%
D20*
%TO.C,D7*%
X139250000Y-74375000D03*
X139250000Y-76125000D03*
%TD*%
D17*
%TO.C,C21*%
X131320000Y-82600000D03*
X132280000Y-82600000D03*
%TD*%
D10*
%TO.C,R29*%
X134000000Y-112200000D03*
X134000000Y-113220000D03*
%TD*%
D12*
%TO.C,C26*%
X149880000Y-115100000D03*
X148920000Y-115100000D03*
%TD*%
D18*
%TO.C,U8*%
X149525000Y-100500000D03*
X149525000Y-99230000D03*
X149525000Y-97960000D03*
X149525000Y-96690000D03*
X154475000Y-96690000D03*
X154475000Y-97960000D03*
X154475000Y-99230000D03*
X154475000Y-100500000D03*
%TD*%
D21*
%TO.C,J10*%
X153220000Y-78032500D03*
D22*
X150700000Y-78032500D03*
%TD*%
D13*
%TO.C,R16*%
X156200000Y-113310000D03*
X156200000Y-112290000D03*
%TD*%
%TO.C,R13*%
X124800000Y-100210000D03*
X124800000Y-99190000D03*
%TD*%
D20*
%TO.C,D8*%
X140750000Y-74375000D03*
X140750000Y-76125000D03*
%TD*%
D15*
%TO.C,R31*%
X153780000Y-105200000D03*
X154800000Y-105200000D03*
%TD*%
D10*
%TO.C,R17*%
X156200000Y-110090000D03*
X156200000Y-111110000D03*
%TD*%
D11*
%TO.C,D2*%
X121925000Y-92400000D03*
X123675000Y-92400000D03*
%TD*%
D10*
%TO.C,R12*%
X124800000Y-96990000D03*
X124800000Y-98010000D03*
%TD*%
D16*
%TO.C,D6*%
X159275000Y-79600000D03*
X157525000Y-79600000D03*
%TD*%
%TO.C,D5*%
X159275000Y-92400000D03*
X157525000Y-92400000D03*
%TD*%
D12*
%TO.C,C25*%
X132280000Y-108400000D03*
X131320000Y-108400000D03*
%TD*%
D17*
%TO.C,C32*%
X154520000Y-89200000D03*
X155480000Y-89200000D03*
%TD*%
D13*
%TO.C,R20*%
X156300000Y-87710000D03*
X156300000Y-86690000D03*
%TD*%
D14*
%TO.C,U6*%
X131475000Y-109800000D03*
X131475000Y-111070000D03*
X131475000Y-112340000D03*
X131475000Y-113610000D03*
X126525000Y-113610000D03*
X126525000Y-112340000D03*
X126525000Y-111070000D03*
X126525000Y-109800000D03*
%TD*%
D19*
%TO.C,R22*%
X127510000Y-79500000D03*
X126490000Y-79500000D03*
%TD*%
D13*
%TO.C,R41*%
X140750000Y-83110000D03*
X140750000Y-82090000D03*
%TD*%
D12*
%TO.C,C23*%
X132280000Y-95200000D03*
X131320000Y-95200000D03*
%TD*%
D19*
%TO.C,R28*%
X127510000Y-105200000D03*
X126490000Y-105200000D03*
%TD*%
D13*
%TO.C,R24*%
X134000000Y-85510000D03*
X134000000Y-84490000D03*
%TD*%
D23*
X120600000Y-146987500D02*
X120600000Y-75985000D01*
X160575000Y-75985000D02*
G75*
G03*
X157575000Y-72985000I-3000000J0D01*
G01*
X123600000Y-72985000D02*
G75*
G03*
X120600000Y-75985000I0J-3000000D01*
G01*
X120600000Y-146987500D02*
G75*
G03*
X123612500Y-150000000I3012500J0D01*
G01*
X123600000Y-72985000D02*
X157575000Y-72985000D01*
X157587500Y-150000000D02*
G75*
G03*
X160575000Y-147012500I0J2987500D01*
G01*
X157587500Y-150000000D02*
X123612500Y-150000000D01*
X160575000Y-75985000D02*
X160575000Y-147012500D01*
M02*
