%TF.GenerationSoftware,KiCad,Pcbnew,7.0.7*%
%TF.CreationDate,2024-10-30T15:42:32+00:00*%
%TF.ProjectId,Ponder-Pico2,506f6e64-6572-42d5-9069-636f322e6b69,0.1*%
%TF.SameCoordinates,Original*%
%TF.FileFunction,Paste,Top*%
%TF.FilePolarity,Positive*%
%FSLAX46Y46*%
G04 Gerber Fmt 4.6, Leading zero omitted, Abs format (unit mm)*
G04 Created by KiCad (PCBNEW 7.0.7) date 2024-10-30 15:42:32*
%MOMM*%
%LPD*%
G01*
G04 APERTURE LIST*
G04 Aperture macros list*
%AMRoundRect*
0 Rectangle with rounded corners*
0 $1 Rounding radius*
0 $2 $3 $4 $5 $6 $7 $8 $9 X,Y pos of 4 corners*
0 Add a 4 corners polygon primitive as box body*
4,1,4,$2,$3,$4,$5,$6,$7,$8,$9,$2,$3,0*
0 Add four circle primitives for the rounded corners*
1,1,$1+$1,$2,$3*
1,1,$1+$1,$4,$5*
1,1,$1+$1,$6,$7*
1,1,$1+$1,$8,$9*
0 Add four rect primitives between the rounded corners*
20,1,$1+$1,$2,$3,$4,$5,0*
20,1,$1+$1,$4,$5,$6,$7,0*
20,1,$1+$1,$6,$7,$8,$9,0*
20,1,$1+$1,$8,$9,$2,$3,0*%
G04 Aperture macros list end*
%ADD10R,0.600000X1.150000*%
%ADD11R,0.300000X1.150000*%
%ADD12O,1.000000X2.100000*%
%ADD13O,1.000000X1.800000*%
%ADD14RoundRect,0.135000X-0.185000X0.135000X-0.185000X-0.135000X0.185000X-0.135000X0.185000X0.135000X0*%
%ADD15RoundRect,0.135000X0.185000X-0.135000X0.185000X0.135000X-0.185000X0.135000X-0.185000X-0.135000X0*%
%ADD16RoundRect,0.112500X-0.112500X0.187500X-0.112500X-0.187500X0.112500X-0.187500X0.112500X0.187500X0*%
%ADD17RoundRect,0.250000X-0.250000X-0.475000X0.250000X-0.475000X0.250000X0.475000X-0.250000X0.475000X0*%
%ADD18RoundRect,0.135000X-0.135000X-0.185000X0.135000X-0.185000X0.135000X0.185000X-0.135000X0.185000X0*%
%ADD19R,1.050000X0.650000*%
%TA.AperFunction,Profile*%
%ADD20C,0.100000*%
%TD*%
G04 APERTURE END LIST*
D10*
%TO.C,J1*%
X143900000Y-80180000D03*
X143100000Y-80180000D03*
D11*
X141950000Y-80180000D03*
X140950000Y-80180000D03*
X140450000Y-80180000D03*
X139450000Y-80180000D03*
D10*
X138300000Y-80180000D03*
X137500000Y-80180000D03*
X137500000Y-80180000D03*
X138300000Y-80180000D03*
D11*
X138950000Y-80180000D03*
X139950000Y-80180000D03*
X141450000Y-80180000D03*
X142450000Y-80180000D03*
D10*
X143100000Y-80180000D03*
X143900000Y-80180000D03*
D12*
X145020000Y-79605000D03*
D13*
X145020000Y-75425000D03*
D12*
X136380000Y-79605000D03*
D13*
X136380000Y-75425000D03*
%TD*%
D14*
%TO.C,R4*%
X146700000Y-74590000D03*
X146700000Y-75610000D03*
%TD*%
%TO.C,R47*%
X147215000Y-141490000D03*
X147215000Y-142510000D03*
%TD*%
D15*
%TO.C,R2*%
X138600000Y-83110000D03*
X138600000Y-82090000D03*
%TD*%
D16*
%TO.C,D10*%
X127400000Y-77750000D03*
X127400000Y-79850000D03*
%TD*%
D14*
%TO.C,R45*%
X137865000Y-141490000D03*
X137865000Y-142510000D03*
%TD*%
D15*
%TO.C,R1*%
X142200000Y-83110000D03*
X142200000Y-82090000D03*
%TD*%
D17*
%TO.C,C13*%
X148350000Y-79000000D03*
X150250000Y-79000000D03*
%TD*%
D15*
%TO.C,R44*%
X125800000Y-79910000D03*
X125800000Y-78890000D03*
%TD*%
D18*
%TO.C,R43*%
X122490000Y-79600000D03*
X123510000Y-79600000D03*
%TD*%
D14*
%TO.C,R48*%
X144315000Y-141490000D03*
X144315000Y-142510000D03*
%TD*%
D19*
%TO.C,SW2*%
X129150000Y-74925000D03*
X133300000Y-74925000D03*
X129150000Y-77075000D03*
X133275000Y-77075000D03*
%TD*%
D14*
%TO.C,R46*%
X141065000Y-141490000D03*
X141065000Y-142510000D03*
%TD*%
D19*
%TO.C,SW1*%
X148550000Y-74925000D03*
X152700000Y-74925000D03*
X148550000Y-77075000D03*
X152675000Y-77075000D03*
%TD*%
D14*
%TO.C,R8*%
X127400000Y-74890000D03*
X127400000Y-75910000D03*
%TD*%
%TO.C,R7*%
X130000000Y-78890000D03*
X130000000Y-79910000D03*
%TD*%
D20*
X120600000Y-146987500D02*
X120600000Y-75985000D01*
X160575000Y-75985000D02*
G75*
G03*
X157575000Y-72985000I-3000000J0D01*
G01*
X123600000Y-72985000D02*
G75*
G03*
X120600000Y-75985000I0J-3000000D01*
G01*
X120600000Y-146987500D02*
G75*
G03*
X123612500Y-150000000I3012500J0D01*
G01*
X123600000Y-72985000D02*
X157575000Y-72985000D01*
X157587500Y-150000000D02*
G75*
G03*
X160575000Y-147012500I0J2987500D01*
G01*
X157587500Y-150000000D02*
X123612500Y-150000000D01*
X160575000Y-75985000D02*
X160575000Y-147012500D01*
M02*
