M48
; DRILL file {KiCad 7.0.7} date Wed Oct 30 16:50:17 2024
; FORMAT={-:-/ absolute / inch / decimal}
; #@! TF.CreationDate,2024-10-30T16:50:17+00:00
; #@! TF.GenerationSoftware,Kicad,Pcbnew,7.0.7
; #@! TF.FileFunction,Plated,1,2,PTH
FMAT,2
INCH
; #@! TA.AperFunction,Plated,PTH,ViaDrill
T1C0.0138
; #@! TA.AperFunction,Plated,PTH,ComponentDrill
T2C0.0236
; #@! TA.AperFunction,Plated,PTH,ComponentDrill
T3C0.0256
; #@! TA.AperFunction,Plated,PTH,ComponentDrill
T4C0.0394
; #@! TA.AperFunction,Plated,PTH,ComponentDrill
T5C0.0402
%
G90
G05
T1
X5.0394Y-4.1654
X5.0709Y-3.2205
X5.1496Y-3.5827
X5.1496Y-4.0866
X5.1496Y-4.5906
X5.1496Y-5.0866
X5.1732Y-3.2835
X5.1762Y-4.4228
X5.1811Y-3.4094
X5.1811Y-3.9055
X5.2327Y-3.7795
X5.2327Y-4.2953
X5.2362Y-4.3543
X5.2441Y-3.8425
X5.248Y-3.0709
X5.252Y-3.3307
X5.2835Y-3.6378
X5.2992Y-3.2047
X5.3071Y-3.8819
X5.3071Y-4.3937
X5.3071Y-4.7717
X5.311Y-3.3858
X5.3307Y-3.4567
X5.3465Y-3.5433
X5.3701Y-4.4173
X5.378Y-4.7717
X5.3996Y-3.4528
X5.3996Y-3.5591
X5.4016Y-3.2047
X5.4173Y-3.2756
X5.4488Y-5.0709
X5.4882Y-5.0
X5.5276Y-5.0709
X5.5276Y-5.3071
X5.5669Y-4.2835
X5.5669Y-4.3543
X5.5669Y-4.3858
X5.5669Y-5.0016
X5.5827Y-4.2126
X5.5906Y-4.4803
X5.6063Y-3.8346
X5.6063Y-3.9449
X5.6063Y-5.0705
X5.622Y-3.5748
X5.622Y-3.7638
X5.6299Y-3.311
X5.6339Y-3.2717
X5.6614Y-4.2126
X5.6693Y-4.4803
X5.685Y-3.189
X5.6929Y-3.2835
X5.7116Y-3.4882
X5.7244Y-4.5512
X5.7323Y-3.3307
X5.7323Y-4.4173
X5.7559Y-3.3858
X5.7638Y-3.5748
X5.7638Y-3.7638
X5.7638Y-3.8819
X5.7795Y-3.6378
X5.7795Y-4.4016
X5.7795Y-4.5669
X5.8268Y-3.4882
X5.8268Y-3.9882
X5.8303Y-4.5
X5.8583Y-5.378
X5.9094Y-3.1614
X5.9134Y-3.2047
X5.9134Y-4.0866
X5.9134Y-5.378
X5.9213Y-3.5827
X5.9213Y-4.5827
X5.9213Y-5.0866
X6.0642Y-3.1343
T3
X5.3766Y-5.5181
X5.3766Y-5.5681
X5.3766Y-5.6181
X5.4986Y-5.5181
X5.4986Y-5.5681
X5.4986Y-5.6181
X5.6207Y-5.5177
X5.6207Y-5.5677
X5.6207Y-5.6177
X5.7427Y-5.5189
X5.7427Y-5.5689
X5.7427Y-5.6189
X5.7835Y-3.0246
X5.7835Y-3.0746
X5.7835Y-3.1246
T4
X4.8169Y-4.2443
X4.8169Y-4.3443
X4.8169Y-4.4443
X4.8169Y-4.5443
X4.8179Y-3.2352
X4.8179Y-3.3352
X4.8179Y-3.4352
X4.8179Y-3.5352
X4.8179Y-3.7382
X4.8179Y-3.8382
X4.8179Y-3.9382
X4.8179Y-4.0382
X5.3041Y-5.8031
X5.4041Y-5.8031
X5.5041Y-5.8031
X5.6041Y-5.8031
X5.7041Y-5.8031
X5.8041Y-5.8031
X6.2441Y-3.2354
X6.2441Y-3.3354
X6.2441Y-3.4354
X6.2441Y-3.5354
X6.2441Y-4.2441
X6.2441Y-4.3441
X6.2441Y-4.4441
X6.2441Y-4.5441
X6.2451Y-3.7386
X6.2451Y-3.8386
X6.2451Y-3.9386
X6.2451Y-4.0386
T5
X5.4331Y-3.6449
X5.4331Y-3.7433
X5.4331Y-3.8417
X5.4921Y-3.3772
X5.5315Y-3.5071
X5.5709Y-3.3772
X5.5709Y-4.137
T2
G00X5.3693Y-2.9852
M15
G01X5.3693Y-2.9537
M16
G05
G00X5.3693Y-3.1557
M15
G01X5.3693Y-3.1124
M16
G05
G00X5.7094Y-2.9852
M15
G01X5.7094Y-2.9537
M16
G05
G00X5.7094Y-3.1557
M15
G01X5.7094Y-3.1124
M16
G05
T0
M30
