%TF.GenerationSoftware,KiCad,Pcbnew,7.0.7*%
%TF.CreationDate,2024-10-30T16:35:34+00:00*%
%TF.ProjectId,Ponder-Pico2,506f6e64-6572-42d5-9069-636f322e6b69,0.1*%
%TF.SameCoordinates,Original*%
%TF.FileFunction,Soldermask,Bot*%
%TF.FilePolarity,Negative*%
%FSLAX46Y46*%
G04 Gerber Fmt 4.6, Leading zero omitted, Abs format (unit mm)*
G04 Created by KiCad (PCBNEW 7.0.7) date 2024-10-30 16:35:34*
%MOMM*%
%LPD*%
G01*
G04 APERTURE LIST*
G04 Aperture macros list*
%AMRoundRect*
0 Rectangle with rounded corners*
0 $1 Rounding radius*
0 $2 $3 $4 $5 $6 $7 $8 $9 X,Y pos of 4 corners*
0 Add a 4 corners polygon primitive as box body*
4,1,4,$2,$3,$4,$5,$6,$7,$8,$9,$2,$3,0*
0 Add four circle primitives for the rounded corners*
1,1,$1+$1,$2,$3*
1,1,$1+$1,$4,$5*
1,1,$1+$1,$6,$7*
1,1,$1+$1,$8,$9*
0 Add four rect primitives between the rounded corners*
20,1,$1+$1,$2,$3,$4,$5,0*
20,1,$1+$1,$4,$5,$6,$7,0*
20,1,$1+$1,$6,$7,$8,$9,0*
20,1,$1+$1,$8,$9,$2,$3,0*%
G04 Aperture macros list end*
%ADD10C,0.150000*%
%ADD11O,1.100000X1.800000*%
%ADD12O,1.050000X1.450000*%
%ADD13RoundRect,0.400000X-0.400000X-0.400000X0.400000X-0.400000X0.400000X0.400000X-0.400000X0.400000X0*%
%ADD14C,0.650000*%
%ADD15O,1.000000X2.100000*%
%ADD16O,1.000000X1.800000*%
%ADD17C,2.700000*%
%ADD18RoundRect,0.135000X-0.185000X0.135000X-0.185000X-0.135000X0.185000X-0.135000X0.185000X0.135000X0*%
%ADD19RoundRect,0.237500X-0.287500X-0.237500X0.287500X-0.237500X0.287500X0.237500X-0.287500X0.237500X0*%
%ADD20RoundRect,0.140000X0.140000X0.170000X-0.140000X0.170000X-0.140000X-0.170000X0.140000X-0.170000X0*%
%ADD21R,1.000000X1.000000*%
%ADD22O,1.000000X1.000000*%
%ADD23RoundRect,0.135000X0.185000X-0.135000X0.185000X0.135000X-0.185000X0.135000X-0.185000X-0.135000X0*%
%ADD24RoundRect,0.150000X0.825000X0.150000X-0.825000X0.150000X-0.825000X-0.150000X0.825000X-0.150000X0*%
%ADD25RoundRect,0.135000X-0.135000X-0.185000X0.135000X-0.185000X0.135000X0.185000X-0.135000X0.185000X0*%
%ADD26C,1.000000*%
%ADD27RoundRect,0.237500X0.287500X0.237500X-0.287500X0.237500X-0.287500X-0.237500X0.287500X-0.237500X0*%
%ADD28RoundRect,0.140000X-0.140000X-0.170000X0.140000X-0.170000X0.140000X0.170000X-0.140000X0.170000X0*%
%ADD29RoundRect,0.150000X-0.825000X-0.150000X0.825000X-0.150000X0.825000X0.150000X-0.825000X0.150000X0*%
%ADD30R,1.700000X1.700000*%
%ADD31O,1.700000X1.700000*%
%ADD32RoundRect,0.135000X0.135000X0.185000X-0.135000X0.185000X-0.135000X-0.185000X0.135000X-0.185000X0*%
%ADD33RoundRect,0.237500X-0.237500X0.287500X-0.237500X-0.287500X0.237500X-0.287500X0.237500X0.287500X0*%
%ADD34R,0.780000X2.835000*%
%ADD35R,0.740000X2.835000*%
%TA.AperFunction,Profile*%
%ADD36C,0.100000*%
%TD*%
G04 APERTURE END LIST*
D10*
X127500000Y-122100000D02*
X126500000Y-122600000D01*
X125800000Y-123400000D01*
X126200000Y-122200000D01*
X127000000Y-122000000D01*
X127800000Y-120800000D01*
X127500000Y-122100000D01*
G36*
X127500000Y-122100000D02*
G01*
X126500000Y-122600000D01*
X125800000Y-123400000D01*
X126200000Y-122200000D01*
X127000000Y-122000000D01*
X127800000Y-120800000D01*
X127500000Y-122100000D01*
G37*
X154400000Y-140300000D02*
X153100000Y-140600000D01*
X152400000Y-141400000D01*
X152700000Y-140100000D01*
X153600000Y-140000000D01*
X154400000Y-138800000D01*
X154400000Y-140300000D01*
G36*
X154400000Y-140300000D02*
G01*
X153100000Y-140600000D01*
X152400000Y-141400000D01*
X152700000Y-140100000D01*
X153600000Y-140000000D01*
X154400000Y-138800000D01*
X154400000Y-140300000D01*
G37*
X124259358Y-139075086D02*
X126259358Y-138275086D01*
X128659358Y-141275086D01*
X130059358Y-140875086D01*
X132059358Y-144075086D01*
X129659358Y-142275086D01*
X128259358Y-142875086D01*
X126059358Y-140075086D01*
X124259358Y-141275086D01*
X120514804Y-136837463D01*
X120514804Y-133237463D01*
X124259358Y-139075086D01*
G36*
X124259358Y-139075086D02*
G01*
X126259358Y-138275086D01*
X128659358Y-141275086D01*
X130059358Y-140875086D01*
X132059358Y-144075086D01*
X129659358Y-142275086D01*
X128259358Y-142875086D01*
X126059358Y-140075086D01*
X124259358Y-141275086D01*
X120514804Y-136837463D01*
X120514804Y-133237463D01*
X124259358Y-139075086D01*
G37*
X151455446Y-124562377D02*
X152855446Y-123962377D01*
X155055446Y-126762377D01*
X156855446Y-125562377D01*
X160600000Y-130000000D01*
X160600000Y-133600000D01*
X156855446Y-127762377D01*
X154855446Y-128562377D01*
X152455446Y-125562377D01*
X151055446Y-125962377D01*
X149055446Y-122762377D01*
X151455446Y-124562377D01*
G36*
X151455446Y-124562377D02*
G01*
X152855446Y-123962377D01*
X155055446Y-126762377D01*
X156855446Y-125562377D01*
X160600000Y-130000000D01*
X160600000Y-133600000D01*
X156855446Y-127762377D01*
X154855446Y-128562377D01*
X152455446Y-125562377D01*
X151055446Y-125962377D01*
X149055446Y-122762377D01*
X151455446Y-124562377D01*
G37*
X127700000Y-147200000D02*
X132300000Y-147200000D01*
X132300000Y-150000000D01*
X127700000Y-150000000D01*
X127700000Y-147200000D01*
G36*
X127700000Y-147200000D02*
G01*
X132300000Y-147200000D01*
X132300000Y-150000000D01*
X127700000Y-150000000D01*
X127700000Y-147200000D01*
G37*
X149700000Y-147200000D02*
X154300000Y-147200000D01*
X154300000Y-150000000D01*
X149700000Y-150000000D01*
X149700000Y-147200000D01*
G36*
X149700000Y-147200000D02*
G01*
X154300000Y-147200000D01*
X154300000Y-150000000D01*
X149700000Y-150000000D01*
X149700000Y-147200000D01*
G37*
X152812969Y-146063628D02*
X152884398Y-146027914D01*
X152884398Y-146027914D02*
X152991540Y-146027914D01*
X152991540Y-146027914D02*
X153098683Y-146063628D01*
X153098683Y-146063628D02*
X153170112Y-146135057D01*
X153170112Y-146135057D02*
X153205826Y-146206485D01*
X153205826Y-146206485D02*
X153241540Y-146349342D01*
X153241540Y-146349342D02*
X153241540Y-146456485D01*
X153241540Y-146456485D02*
X153205826Y-146599342D01*
X153205826Y-146599342D02*
X153170112Y-146670771D01*
X153170112Y-146670771D02*
X153098683Y-146742200D01*
X153098683Y-146742200D02*
X152991540Y-146777914D01*
X152991540Y-146777914D02*
X152920112Y-146777914D01*
X152920112Y-146777914D02*
X152812969Y-146742200D01*
X152812969Y-146742200D02*
X152777255Y-146706485D01*
X152777255Y-146706485D02*
X152777255Y-146456485D01*
X152777255Y-146456485D02*
X152920112Y-146456485D01*
X152455826Y-146777914D02*
X152455826Y-146027914D01*
X152455826Y-146027914D02*
X152027255Y-146777914D01*
X152027255Y-146777914D02*
X152027255Y-146027914D01*
X151670112Y-146777914D02*
X151670112Y-146027914D01*
X151670112Y-146027914D02*
X151491541Y-146027914D01*
X151491541Y-146027914D02*
X151384398Y-146063628D01*
X151384398Y-146063628D02*
X151312969Y-146135057D01*
X151312969Y-146135057D02*
X151277255Y-146206485D01*
X151277255Y-146206485D02*
X151241541Y-146349342D01*
X151241541Y-146349342D02*
X151241541Y-146456485D01*
X151241541Y-146456485D02*
X151277255Y-146599342D01*
X151277255Y-146599342D02*
X151312969Y-146670771D01*
X151312969Y-146670771D02*
X151384398Y-146742200D01*
X151384398Y-146742200D02*
X151491541Y-146777914D01*
X151491541Y-146777914D02*
X151670112Y-146777914D01*
X130812969Y-146063628D02*
X130884398Y-146027914D01*
X130884398Y-146027914D02*
X130991540Y-146027914D01*
X130991540Y-146027914D02*
X131098683Y-146063628D01*
X131098683Y-146063628D02*
X131170112Y-146135057D01*
X131170112Y-146135057D02*
X131205826Y-146206485D01*
X131205826Y-146206485D02*
X131241540Y-146349342D01*
X131241540Y-146349342D02*
X131241540Y-146456485D01*
X131241540Y-146456485D02*
X131205826Y-146599342D01*
X131205826Y-146599342D02*
X131170112Y-146670771D01*
X131170112Y-146670771D02*
X131098683Y-146742200D01*
X131098683Y-146742200D02*
X130991540Y-146777914D01*
X130991540Y-146777914D02*
X130920112Y-146777914D01*
X130920112Y-146777914D02*
X130812969Y-146742200D01*
X130812969Y-146742200D02*
X130777255Y-146706485D01*
X130777255Y-146706485D02*
X130777255Y-146456485D01*
X130777255Y-146456485D02*
X130920112Y-146456485D01*
X130455826Y-146777914D02*
X130455826Y-146027914D01*
X130455826Y-146027914D02*
X130027255Y-146777914D01*
X130027255Y-146777914D02*
X130027255Y-146027914D01*
X129670112Y-146777914D02*
X129670112Y-146027914D01*
X129670112Y-146027914D02*
X129491541Y-146027914D01*
X129491541Y-146027914D02*
X129384398Y-146063628D01*
X129384398Y-146063628D02*
X129312969Y-146135057D01*
X129312969Y-146135057D02*
X129277255Y-146206485D01*
X129277255Y-146206485D02*
X129241541Y-146349342D01*
X129241541Y-146349342D02*
X129241541Y-146456485D01*
X129241541Y-146456485D02*
X129277255Y-146599342D01*
X129277255Y-146599342D02*
X129312969Y-146670771D01*
X129312969Y-146670771D02*
X129384398Y-146742200D01*
X129384398Y-146742200D02*
X129491541Y-146777914D01*
X129491541Y-146777914D02*
X129670112Y-146777914D01*
D11*
%TO.C,U1*%
X137775000Y-86080000D03*
D12*
X138075000Y-89110000D03*
X142925000Y-89110000D03*
D11*
X143225000Y-86080000D03*
D13*
X140500000Y-89080000D03*
X141500000Y-85780000D03*
X139500000Y-85780000D03*
X138000000Y-92580000D03*
X138000000Y-95080000D03*
X138000000Y-97580000D03*
X141500000Y-105080000D03*
%TD*%
D14*
%TO.C,J1*%
X143590000Y-79105000D03*
X137810000Y-79105000D03*
D15*
X145020000Y-79605000D03*
D16*
X145020000Y-75425000D03*
D15*
X136380000Y-79605000D03*
D16*
X136380000Y-75425000D03*
%TD*%
D17*
%TO.C,H4*%
X123600000Y-120000000D03*
%TD*%
%TO.C,H2*%
X157575000Y-75985000D03*
%TD*%
%TO.C,H1*%
X123600000Y-75985000D03*
%TD*%
%TO.C,H3*%
X157575000Y-120000000D03*
%TD*%
%TO.C,H6*%
X157575000Y-147000000D03*
%TD*%
%TO.C,H5*%
X123600000Y-147000000D03*
%TD*%
D18*
%TO.C,R14*%
X124800000Y-110090000D03*
X124800000Y-111110000D03*
%TD*%
D19*
%TO.C,D1*%
X122025000Y-79500000D03*
X123775000Y-79500000D03*
%TD*%
D20*
%TO.C,C29*%
X149880000Y-101995000D03*
X148920000Y-101995000D03*
%TD*%
D21*
%TO.C,J12*%
X145865000Y-140180000D03*
D22*
X145865000Y-141450000D03*
X145865000Y-142720000D03*
%TD*%
D23*
%TO.C,R38*%
X147200000Y-85600000D03*
X147200000Y-84580000D03*
%TD*%
D24*
%TO.C,U4*%
X131475000Y-84095000D03*
X131475000Y-85365000D03*
X131475000Y-86635000D03*
X131475000Y-87905000D03*
X126525000Y-87905000D03*
X126525000Y-86635000D03*
X126525000Y-85365000D03*
X126525000Y-84095000D03*
%TD*%
D20*
%TO.C,C30*%
X149880000Y-89295000D03*
X148920000Y-89295000D03*
%TD*%
%TO.C,C22*%
X126680000Y-82600000D03*
X125720000Y-82600000D03*
%TD*%
D23*
%TO.C,R42*%
X142250000Y-83110000D03*
X142250000Y-82090000D03*
%TD*%
D25*
%TO.C,R34*%
X153890000Y-92400000D03*
X154910000Y-92400000D03*
%TD*%
D26*
%TO.C,TP4*%
X141400000Y-127040784D03*
%TD*%
D23*
%TO.C,R11*%
X124750000Y-87650000D03*
X124750000Y-86630000D03*
%TD*%
D18*
%TO.C,R33*%
X147500000Y-112290000D03*
X147500000Y-113310000D03*
%TD*%
D26*
%TO.C,TP5*%
X142400000Y-128790784D03*
%TD*%
D18*
%TO.C,R26*%
X134000000Y-99090000D03*
X134000000Y-100110000D03*
%TD*%
D20*
%TO.C,C27*%
X126680000Y-108400000D03*
X125720000Y-108400000D03*
%TD*%
D18*
%TO.C,R21*%
X156300000Y-84385000D03*
X156300000Y-85405000D03*
%TD*%
D26*
%TO.C,TP1*%
X138400000Y-128790784D03*
%TD*%
D27*
%TO.C,D4*%
X159275000Y-105200000D03*
X157525000Y-105200000D03*
%TD*%
D24*
%TO.C,U5*%
X131475000Y-96690000D03*
X131475000Y-97960000D03*
X131475000Y-99230000D03*
X131475000Y-100500000D03*
X126525000Y-100500000D03*
X126525000Y-99230000D03*
X126525000Y-97960000D03*
X126525000Y-96690000D03*
%TD*%
D18*
%TO.C,R37*%
X147200000Y-99090000D03*
X147200000Y-100110000D03*
%TD*%
D28*
%TO.C,C28*%
X154520000Y-115100000D03*
X155480000Y-115100000D03*
%TD*%
D18*
%TO.C,R23*%
X134000000Y-86490000D03*
X134000000Y-87510000D03*
%TD*%
%TO.C,R19*%
X156200000Y-96990000D03*
X156200000Y-98010000D03*
%TD*%
D23*
%TO.C,R27*%
X134000000Y-98210000D03*
X134000000Y-97190000D03*
%TD*%
%TO.C,R18*%
X156200000Y-100210000D03*
X156200000Y-99190000D03*
%TD*%
D18*
%TO.C,R10*%
X124750000Y-84390000D03*
X124750000Y-85410000D03*
%TD*%
D25*
%TO.C,R35*%
X154790000Y-79600000D03*
X155810000Y-79600000D03*
%TD*%
D23*
%TO.C,R30*%
X134000000Y-110910000D03*
X134000000Y-109890000D03*
%TD*%
%TO.C,R40*%
X139250000Y-83110000D03*
X139250000Y-82090000D03*
%TD*%
D29*
%TO.C,U9*%
X149525000Y-87905000D03*
X149525000Y-86635000D03*
X149525000Y-85365000D03*
X149525000Y-84095000D03*
X154475000Y-84095000D03*
X154475000Y-85365000D03*
X154475000Y-86635000D03*
X154475000Y-87905000D03*
%TD*%
D23*
%TO.C,R32*%
X147500000Y-111310000D03*
X147500000Y-110290000D03*
%TD*%
D26*
%TO.C,TP2*%
X140400000Y-128790784D03*
%TD*%
D23*
%TO.C,R15*%
X124800000Y-113415000D03*
X124800000Y-112395000D03*
%TD*%
D18*
%TO.C,R39*%
X147200000Y-86580000D03*
X147200000Y-87600000D03*
%TD*%
D30*
%TO.C,J6*%
X158625000Y-102580000D03*
D31*
X158625000Y-100040000D03*
X158625000Y-97500000D03*
X158625000Y-94960000D03*
%TD*%
D19*
%TO.C,D3*%
X121925000Y-105200000D03*
X123675000Y-105200000D03*
%TD*%
D20*
%TO.C,C24*%
X126680000Y-95200000D03*
X125720000Y-95200000D03*
%TD*%
D28*
%TO.C,C31*%
X154520000Y-101900000D03*
X155480000Y-101900000D03*
%TD*%
D32*
%TO.C,R25*%
X127510000Y-92400000D03*
X126490000Y-92400000D03*
%TD*%
D33*
%TO.C,D9*%
X142250000Y-74375000D03*
X142250000Y-76125000D03*
%TD*%
D29*
%TO.C,U7*%
X149525000Y-113610000D03*
X149525000Y-112340000D03*
X149525000Y-111070000D03*
X149525000Y-109800000D03*
X154475000Y-109800000D03*
X154475000Y-111070000D03*
X154475000Y-112340000D03*
X154475000Y-113610000D03*
%TD*%
D23*
%TO.C,R36*%
X147200000Y-98110000D03*
X147200000Y-97090000D03*
%TD*%
D33*
%TO.C,D7*%
X139250000Y-74375000D03*
X139250000Y-76125000D03*
%TD*%
D28*
%TO.C,C21*%
X131320000Y-82600000D03*
X132280000Y-82600000D03*
%TD*%
D18*
%TO.C,R29*%
X134000000Y-112200000D03*
X134000000Y-113220000D03*
%TD*%
D20*
%TO.C,C26*%
X149880000Y-115100000D03*
X148920000Y-115100000D03*
%TD*%
D21*
%TO.C,J13*%
X142765000Y-140150000D03*
D22*
X142765000Y-141420000D03*
X142765000Y-142690000D03*
%TD*%
D30*
%TO.C,J2*%
X122375000Y-82175000D03*
D31*
X122375000Y-84715000D03*
X122375000Y-87255000D03*
X122375000Y-89795000D03*
%TD*%
D30*
%TO.C,J7*%
X158600000Y-89800000D03*
D31*
X158600000Y-87260000D03*
X158600000Y-84720000D03*
X158600000Y-82180000D03*
%TD*%
D29*
%TO.C,U8*%
X149525000Y-100500000D03*
X149525000Y-99230000D03*
X149525000Y-97960000D03*
X149525000Y-96690000D03*
X154475000Y-96690000D03*
X154475000Y-97960000D03*
X154475000Y-99230000D03*
X154475000Y-100500000D03*
%TD*%
D34*
%TO.C,J10*%
X153220000Y-78032500D03*
D35*
X150700000Y-78032500D03*
%TD*%
D23*
%TO.C,R16*%
X156200000Y-113310000D03*
X156200000Y-112290000D03*
%TD*%
%TO.C,R13*%
X124800000Y-100210000D03*
X124800000Y-99190000D03*
%TD*%
D33*
%TO.C,D8*%
X140750000Y-74375000D03*
X140750000Y-76125000D03*
%TD*%
D25*
%TO.C,R31*%
X153780000Y-105200000D03*
X154800000Y-105200000D03*
%TD*%
D18*
%TO.C,R17*%
X156200000Y-110090000D03*
X156200000Y-111110000D03*
%TD*%
D19*
%TO.C,D2*%
X121925000Y-92400000D03*
X123675000Y-92400000D03*
%TD*%
D18*
%TO.C,R12*%
X124800000Y-96990000D03*
X124800000Y-98010000D03*
%TD*%
D30*
%TO.C,J3*%
X122375000Y-94950000D03*
D31*
X122375000Y-97490000D03*
X122375000Y-100030000D03*
X122375000Y-102570000D03*
%TD*%
D27*
%TO.C,D6*%
X159275000Y-79600000D03*
X157525000Y-79600000D03*
%TD*%
%TO.C,D5*%
X159275000Y-92400000D03*
X157525000Y-92400000D03*
%TD*%
D20*
%TO.C,C25*%
X132280000Y-108400000D03*
X131320000Y-108400000D03*
%TD*%
D30*
%TO.C,J5*%
X158600000Y-115420000D03*
D31*
X158600000Y-112880000D03*
X158600000Y-110340000D03*
X158600000Y-107800000D03*
%TD*%
D30*
%TO.C,J8*%
X147425000Y-147400000D03*
D31*
X144885000Y-147400000D03*
X142345000Y-147400000D03*
X139805000Y-147400000D03*
X137265000Y-147400000D03*
X134725000Y-147400000D03*
%TD*%
D28*
%TO.C,C32*%
X154520000Y-89200000D03*
X155480000Y-89200000D03*
%TD*%
D21*
%TO.C,J14*%
X139665000Y-140160000D03*
D22*
X139665000Y-141430000D03*
X139665000Y-142700000D03*
%TD*%
D23*
%TO.C,R20*%
X156300000Y-87710000D03*
X156300000Y-86690000D03*
%TD*%
D21*
%TO.C,J9*%
X146900000Y-76825000D03*
D22*
X146900000Y-78095000D03*
X146900000Y-79365000D03*
%TD*%
D21*
%TO.C,J15*%
X136565000Y-140160000D03*
D22*
X136565000Y-141430000D03*
X136565000Y-142700000D03*
%TD*%
D24*
%TO.C,U6*%
X131475000Y-109800000D03*
X131475000Y-111070000D03*
X131475000Y-112340000D03*
X131475000Y-113610000D03*
X126525000Y-113610000D03*
X126525000Y-112340000D03*
X126525000Y-111070000D03*
X126525000Y-109800000D03*
%TD*%
D32*
%TO.C,R22*%
X127510000Y-79500000D03*
X126490000Y-79500000D03*
%TD*%
D23*
%TO.C,R41*%
X140750000Y-83110000D03*
X140750000Y-82090000D03*
%TD*%
D20*
%TO.C,C23*%
X132280000Y-95200000D03*
X131320000Y-95200000D03*
%TD*%
D26*
%TO.C,TP3*%
X139400000Y-127040784D03*
%TD*%
D32*
%TO.C,R28*%
X127510000Y-105200000D03*
X126490000Y-105200000D03*
%TD*%
D23*
%TO.C,R24*%
X134000000Y-85510000D03*
X134000000Y-84490000D03*
%TD*%
D30*
%TO.C,J4*%
X122350000Y-107805000D03*
D31*
X122350000Y-110345000D03*
X122350000Y-112885000D03*
X122350000Y-115425000D03*
%TD*%
D36*
X120600000Y-146987500D02*
X120600000Y-75985000D01*
X160575000Y-75985000D02*
G75*
G03*
X157575000Y-72985000I-3000000J0D01*
G01*
X123600000Y-72985000D02*
G75*
G03*
X120600000Y-75985000I0J-3000000D01*
G01*
X120600000Y-146987500D02*
G75*
G03*
X123612500Y-150000000I3012500J0D01*
G01*
X123600000Y-72985000D02*
X157575000Y-72985000D01*
X157587500Y-150000000D02*
G75*
G03*
X160575000Y-147012500I0J2987500D01*
G01*
X157587500Y-150000000D02*
X123612500Y-150000000D01*
X160575000Y-75985000D02*
X160575000Y-147012500D01*
M02*
