M48
; DRILL file {KiCad 7.0.7} date Tue Sep 17 12:02:04 2024
; FORMAT={-:-/ absolute / inch / decimal}
; #@! TF.CreationDate,2024-09-17T12:02:04+01:00
; #@! TF.GenerationSoftware,Kicad,Pcbnew,7.0.7
; #@! TF.FileFunction,Plated,1,2,PTH
FMAT,2
INCH
; #@! TA.AperFunction,Plated,PTH,ComponentDrill
T1C0.0098
; #@! TA.AperFunction,Plated,PTH,ViaDrill
T2C0.0138
; #@! TA.AperFunction,Plated,PTH,ComponentDrill
T3C0.0236
; #@! TA.AperFunction,Plated,PTH,ComponentDrill
T4C0.0256
; #@! TA.AperFunction,Plated,PTH,ComponentDrill
T5C0.0394
%
G90
G05
T1
X5.479Y-3.664
X5.479Y-3.7087
X5.479Y-3.7533
X5.5236Y-3.664
X5.5236Y-3.7087
X5.5236Y-3.7533
X5.5682Y-3.664
X5.5682Y-3.7087
X5.5682Y-3.7533
T2
X5.0551Y-3.6378
X5.0787Y-3.2165
X5.1102Y-3.7402
X5.1271Y-4.1445
X5.1457Y-3.7772
X5.1584Y-4.0197
X5.1606Y-3.7008
X5.1608Y-3.6102
X5.176Y-3.1862
X5.2126Y-4.2283
X5.2283Y-3.44
X5.2283Y-4.189
X5.2372Y-4.051
X5.2402Y-4.3937
X5.2498Y-3.9096
X5.252Y-3.748
X5.2578Y-4.0276
X5.272Y-3.7966
X5.2756Y-3.7008
X5.2835Y-3.2677
X5.2874Y-3.4764
X5.2913Y-4.0512
X5.2992Y-3.1024
X5.2992Y-3.5472
X5.3041Y-3.8845
X5.3228Y-4.0394
X5.3341Y-3.4104
X5.3543Y-3.9055
X5.3555Y-3.4555
X5.3609Y-3.4862
X5.374Y-4.1142
X5.4173Y-4.2283
X5.4213Y-3.2205
X5.4213Y-4.1189
X5.437Y-3.7008
X5.437Y-4.0787
X5.4482Y-3.3094
X5.4843Y-3.3031
X5.5551Y-3.7992
X5.5551Y-3.9929
X5.5748Y-4.0787
X5.5906Y-3.4252
X5.5906Y-3.4488
X5.5906Y-3.622
X5.6053Y-4.1604
X5.6142Y-3.7008
X5.6181Y-3.2992
X5.6181Y-4.0433
X5.626Y-4.2756
X5.6273Y-3.9593
X5.6504Y-3.9777
X5.6732Y-3.2598
X5.685Y-3.435
X5.685Y-3.4587
X5.689Y-3.2008
X5.7087Y-4.0787
X5.709Y-3.9396
X5.7126Y-3.5
X5.7163Y-4.0295
X5.7205Y-3.9882
X5.748Y-3.9055
X5.7566Y-3.816
X5.7598Y-3.6269
X5.7651Y-3.8442
X5.7704Y-3.5856
X5.7854Y-4.0374
X5.7913Y-3.7008
X5.7996Y-3.5894
X5.826Y-3.7984
X5.8268Y-3.3858
X5.8352Y-4.4031
X5.8583Y-3.5669
X5.8843Y-3.6575
X5.8866Y-3.689
X5.8866Y-3.7283
X5.9016Y-4.5748
X5.9055Y-4.0551
X5.9094Y-3.5551
X5.939Y-4.0886
X5.9685Y-3.1102
X5.9961Y-3.1339
X6.0236Y-3.1732
X6.0276Y-3.6102
X6.0787Y-3.2283
T4
X5.378Y-4.4717
X5.378Y-4.5217
X5.378Y-4.5717
X5.5Y-4.4705
X5.5Y-4.5205
X5.5Y-4.5705
X5.622Y-4.4709
X5.622Y-4.5209
X5.622Y-4.5709
X5.7441Y-4.4709
X5.7441Y-4.5209
X5.7441Y-4.5709
X5.7835Y-3.0246
X5.7835Y-3.0746
X5.7835Y-3.1246
T5
X4.8169Y-4.2443
X4.8169Y-4.3443
X4.8169Y-4.4443
X4.8169Y-4.5443
X4.8179Y-3.2352
X4.8179Y-3.3352
X4.8179Y-3.4352
X4.8179Y-3.5352
X4.8179Y-3.7382
X4.8179Y-3.8382
X4.8179Y-3.9382
X4.8179Y-4.0382
X5.3165Y-4.7559
X5.4165Y-4.7559
X5.5165Y-4.7559
X5.6165Y-4.7559
X5.7165Y-4.7559
X5.8165Y-4.7559
X6.2441Y-3.2354
X6.2441Y-3.3354
X6.2441Y-3.4354
X6.2441Y-3.5354
X6.2441Y-4.2441
X6.2441Y-4.3441
X6.2441Y-4.4441
X6.2441Y-4.5441
X6.2451Y-3.7386
X6.2451Y-3.8386
X6.2451Y-3.9386
X6.2451Y-4.0386
T3
G00X5.3693Y-2.9852
M15
G01X5.3693Y-2.9537
M16
G05
G00X5.3693Y-3.1557
M15
G01X5.3693Y-3.1124
M16
G05
G00X5.7094Y-2.9852
M15
G01X5.7094Y-2.9537
M16
G05
G00X5.7094Y-3.1557
M15
G01X5.7094Y-3.1124
M16
G05
T0
M30
